<svg height="20" viewBox="0 0 60 60" width="20" xmlns="http://www.w3.org/2000/svg"><g id="Page-1" fill="none" fill-rule="evenodd"><g id="001---Day-and-Night" fill="rgb(0,0,0)" fill-rule="nonzero"><path id="Shape" d="m41.984 15.952c-.298821 8.6273076-4.5577472 16.6352486-11.5440262 21.7059129s-15.9198854 6.6379069-24.2149738 4.2480871c-.79244459-.2322775-1.64649099.0409223-2.157.69-.50133294.6296121-.56828704 1.5012039-.169 2.2 5.31804324 9.4108135 15.2975297 15.2225924 26.107 15.204.338 0 .678-.006 1.017-.017 13.7852204-.4702521 25.4734363-10.279679 28.3278171-23.7743427s-3.8606999-27.1967416-16.2748171-33.2086573c-.7232481-.35275999-1.5884547-.22915904-2.184.312-.6113979.5495826-.8278416 1.41535753-.547 2.188 1.2091008 3.34728427 1.7654697 6.8952821 1.639 10.452zm15.971 15.664c-.9087455 14.4116937-12.5708277 25.8007967-27 26.368-10.4127156.3801925-20.1674395-5.0812338-25.286-14.157 8.8880616 2.5610376 18.4604721.8817914 25.9461037-4.551612 7.4856317-5.4334033 12.0485742-14.014223 12.3678963-23.258388.1345269-3.8189921-.4709269-7.6279524-1.783-11.217 10.1962002 4.92482675 16.4164404 15.5120665 15.755 26.816z"/><path id="Shape" d="m53.51 25.2c.9621168 4.8441069.4647816 9.8647906-1.429 14.426-.2082113.5116918.0378082 1.0952886.5495 1.3034999.5116918.2082114 1.0952886-.0378081 1.3035-.5494999 2.0426769-4.9268581 2.577245-10.3491045 1.536-15.58-.0714531-.3501203-.3242655-.635525-.6632051-.7487049-.3389396-.11318-.7125135-.0369404-.98.2-.2674865.2369403-.388248.5985846-.3167949.9487049z"/><path id="Shape" d="m52.005 20.4c.2291046.4943162.8117538.7142651 1.3103625.4946593s.7296642-.7979405.5196375-1.3006593c-.4965113-1.1351433-1.0736533-2.2332837-1.727-3.286-.1889935-.3036758-.5256398-.4834569-.8831274-.4716216-.3574877.0118353-.6815059.213489-.85.529-.1684942.3155111-.1558661.6969458.0331274 1.0006216.6039578.9719821 1.1376516 1.9859001 1.597 3.034z"/><path id="Shape" d="m19 30c6.0751322 0 11-4.9248678 11-11s-4.9248678-11-11-11-11 4.9248678-11 11c.0071635 6.0721626 4.9278374 10.9928365 11 11zm0-20c4.9705627 0 9 4.0294373 9 9s-4.0294373 9-9 9-9-4.0294373-9-9c.006061-4.9680501 4.0319499-8.993939 9-9z"/><path id="Shape" d="m13 20c.5522847 0 1-.4477153 1-1 .0033061-2.7600532 2.2399468-4.9966939 5-5 .5522847 0 1-.4477153 1-1s-.4477153-1-1-1c-3.8641657.0044086-6.9955914 3.1358343-7 7 0 .5522847.4477153 1 1 1z"/><path id="Shape" d="m19 6c.5522847 0 1-.44771525 1-1v-4c0-.55228475-.4477153-1-1-1s-1 .44771525-1 1v4c0 .55228475.4477153 1 1 1z"/><path id="Shape" d="m20 37v-4c0-.5522847-.4477153-1-1-1s-1 .4477153-1 1v4c0 .5522847.4477153 1 1 1s1-.4477153 1-1z"/><path id="Shape" d="m32 19c0 .5522847.4477153 1 1 1h4c.5522847 0 1-.4477153 1-1s-.4477153-1-1-1h-4c-.5522847 0-1 .4477153-1 1z"/><path id="Shape" d="m1 20h4c.55228475 0 1-.4477153 1-1s-.44771525-1-1-1h-4c-.55228475 0-1 .4477153-1 1s.44771525 1 1 1z"/><path id="Shape" d="m8.394 9.808c.39237889.3789722 1.01608478.3735524 1.40181858-.01218142.38573382-.3857338.39115362-1.00943969.01218142-1.40181858l-2.829-2.829c-.39237889-.37897221-1.01608478-.37355237-1.40181858.01218142-.38573379.3857338-.39115363 1.00943969-.01218142 1.40181858z"/><path id="Shape" d="m31.728 32.728c.4043959-.0000863.7689341-.2437275.923678-.6173454.1547439-.373618.0692299-.8036603-.216678-1.0896546l-2.829-2.829c-.3923789-.3789722-1.0160848-.3735524-1.4018186.0121814s-.3911536 1.0094397-.0121814 1.4018186l2.829 2.829c.1874927.1875494.4418052.2929434.707.293z"/><path id="Shape" d="m28.9 10.1c.2651948-.0000566.5195073-.10545063.707-.293l2.829-2.829c.2599566-.25107447.3642126-.62287789.2726972-.97250732-.0915155-.34962944-.3645604-.6226744-.7141899-.71418984-.3496294-.09151544-.7214328.01274058-.9725073.27269716l-2.83 2.83c-.2853222.28621606-.3703185.71603682-.2154088 1.08930798.1549097.37327117.5192697.61660642.9234088.61669202z"/><path id="Shape" d="m6.979 32.435 2.829-2.829c.3789722-.3923789.3735524-1.0160848-.01218142-1.4018186-.3857338-.3857338-1.00943969-.3911536-1.40181858-.0121814l-2.829 2.829c-.25995658.2510745-.3642126.6228779-.27269716.9725073.09151544.3496295.3645604.6226744.71418984.7141899.34962943.0915154.72143285-.0127406.97250732-.2726972z"/></g></g></svg>